<?xml version="1.0" encoding="UTF-8"?>
<svg width="24px" height="24px" viewBox="0 0 24 24" version="1.1" xmlns="http://www.w3.org/2000/svg" xmlns:xlink="http://www.w3.org/1999/xlink">
    <!-- Generator: Sketch 59.1 (86144) - https://sketch.com -->
    <title>ic-linux</title>
    <desc>Created with Sketch.</desc>
    <g id="ic-linux" stroke="none" stroke-width="1" fill="none" fill-rule="evenodd">
        <g id="noun_Penguin_1798134-Copy-7" transform="translate(3.000000, 3.000000)" fill="#A4B1CD" fill-rule="nonzero">
            <path d="M15.2764773,2.68159091 C13.6309091,1.04175 11.5420909,0.09 8.97320455,0.0511363636 C6.64486364,0.0511363636 4.42575,0.984681818 2.72352273,2.68159091 C0.95175,4.44702273 0.0511363636,6.84470455 0.0511363636,9 C0.0511363636,14.6033182 3.39627273,17.9488636 9,17.9488636 C14.6037273,17.9488636 17.9488636,14.6033182 17.9488636,9 C17.9488636,6.55322727 16.8527045,4.25209091 15.2764773,2.68159091 Z M9,16.6704545 C4.05368182,16.6704545 1.32954545,13.9463182 1.32954545,9 C1.32954545,8.42890909 1.40645455,7.86027273 1.53981818,7.30329545 C2.27618182,6.04615909 3.36334091,5.29056818 4.61659091,5.17909091 C5.86002273,5.06986364 7.13229545,5.60515909 7.93370455,6.58022727 C8.46429545,7.22434091 9.5355,7.22495455 10.0660909,6.57961364 C10.8662727,5.60577273 12.1309773,5.07088636 13.3832045,5.17909091 C14.6364545,5.29056818 15.7236136,6.04615909 16.4599773,7.30329545 C16.5935455,7.86027273 16.6704545,8.42890909 16.6704545,9 C16.6704545,13.9463182 13.9463182,16.6704545 9,16.6704545 Z" id="Shape"></path>
            <path d="M5.80397727,8.36079545 C5.80397727,9.06586364 5.23022727,9.63920455 4.52556818,9.63920455 C3.82090909,9.63920455 3.24715909,9.06586364 3.24715909,8.36079545 C3.24715909,7.65572727 3.82090909,7.08238636 4.52556818,7.08238636 C5.23022727,7.08238636 5.80397727,7.65572727 5.80397727,8.36079545 Z" id="Path"></path>
            <path d="M14.7528409,8.36079545 C14.7528409,9.06586364 14.1790909,9.63920455 13.4744318,9.63920455 C12.7697727,9.63920455 12.1960227,9.06586364 12.1960227,8.36079545 C12.1960227,7.65572727 12.7697727,7.08238636 13.4744318,7.08238636 C14.1790909,7.08238636 14.7528409,7.65572727 14.7528409,8.36079545 Z" id="Path"></path>
            <path d="M11.2720909,10.3857955 C9.78525,9.39456818 8.21454545,9.39456818 6.72770455,10.3857955 C6.50679545,10.5330682 6.40002273,10.8014318 6.45934091,11.0605909 C6.78763636,12.4932273 7.08668182,13.2600682 8.57352273,14.5900227 C8.69522727,14.6986364 8.84761364,14.7530455 8.99979545,14.7530455 C9.15095455,14.7530455 9.30190909,14.6996591 9.42238636,14.5932955 C10.9073864,13.2833864 11.2082727,12.5108182 11.5404545,11.0607955 C11.5999773,10.8014318 11.4932045,10.5330682 11.2720909,10.3857955 Z" id="Path"></path>
        </g>
    </g>
</svg>