<svg xmlns="http://www.w3.org/2000/svg" xmlns:xlink="http://www.w3.org/1999/xlink" width="24px" height="24px" viewBox="0 0 24 24" version="1.1">
    <!-- Generator: Sketch 59.1 (86144) - https://sketch.com -->
    <title>ic-windows</title>
    <desc fill="#00A8C6">Created with Sketch.</desc>
    <g id="ic-windows" stroke="none" stroke-width="1" fill="none" fill-rule="evenodd">
        <g id="Bold-Copy-6" transform="translate(3.000000, 4.000000)" fill="#00a8c6" fill-rule="nonzero">
            <path d="M15.0715385,9.470625 C14.2562617,9.78832716 13.3945385,9.95850253 12.5238462,9.97375 C11.5027989,10.006394 10.5023344,9.67117317 9.69230769,9.025 C9.60219278,8.95085768 9.48249832,8.92801021 9.37287492,8.96402617 C9.26325151,9.00004212 9.17800876,9.09022018 9.14538462,9.2046875 L7.76076923,14.2359375 C7.7365004,14.3105341 7.7365004,14.3913409 7.76076923,14.4659375 C7.88538462,14.789375 9.83769231,15.7453125 10.9592308,15.7453125 C11.998611,15.7118505 13.0216563,15.467685 13.9707692,15.0265625 C14.0677771,14.9854005 14.1416008,14.9008285 14.1715385,14.7965625 L15.5561538,9.8803125 C15.5925693,9.75045172 15.555672,9.61036167 15.4606762,9.51780672 C15.3656804,9.42525176 15.2286755,9.39590802 15.1061538,9.441875 L15.0715385,9.470625 Z" id="Shape" fill="#00A8C6"/>
            <path d="M8.12769231,8.3565625 C7.28128489,7.73248518 6.27813107,7.37783636 5.24076923,7.3359375 C4.23319839,7.39105562 3.24348463,7.63454267 2.31923077,8.0546875 C2.22222289,8.09584951 2.14839916,8.18042152 2.11846154,8.2846875 L0.692307692,13.3375 C0.65595323,13.4697964 0.695537878,13.6120303 0.79425399,13.7038093 C0.892970101,13.7955883 1.03349192,13.820804 1.15615385,13.76875 C1.95194908,13.4052674 2.80724744,13.2027916 3.67615385,13.1721875 C4.6240961,13.1943006 5.54065117,13.5291096 6.29307692,14.128125 C6.35076595,14.1668348 6.41824373,14.1868505 6.48692308,14.185625 C6.52585419,14.1927442 6.56568427,14.1927442 6.60461538,14.185625 C6.70851088,14.1466461 6.78824628,14.0585246 6.81923077,13.9484375 L8.30769231,8.76625 C8.34775388,8.60275255 8.27287869,8.43233349 8.12769231,8.3565625 Z" id="Shape" fill="#00A8C6"/>
            <path d="M2.90076923,6.5525 C3.71849585,6.16899064 4.60023474,5.95417292 5.49692308,5.92 C6.41104105,5.95900161 7.2912067,6.29037349 8.01692308,6.86875 C8.0746121,6.90745979 8.14208989,6.92747552 8.21076923,6.92625 C8.24970034,6.93336923 8.28953042,6.93336923 8.32846154,6.92625 C8.43235703,6.88727112 8.51209244,6.79914956 8.54307692,6.6890625 L9.97615385,1.593125 C9.98069931,1.55974932 9.98069931,1.52587568 9.97615385,1.4925 L9.97615385,1.4925 C9.9768615,1.36634239 9.91379819,1.24903843 9.81,1.1834375 C8.91847466,0.531570898 7.85428357,0.182542757 6.76384615,0.184367823 C5.80873577,0.226258982 4.86955943,0.452957564 3.99461538,0.8528125 C3.89602898,0.895482525 3.82193755,0.983013664 3.79384615,1.09 L2.40923077,6.12125 C2.37287631,6.25354638 2.41246096,6.39578034 2.51117707,6.48755931 C2.60989318,6.57933828 2.75041499,6.60455405 2.87307692,6.5525 L2.90076923,6.5525 Z" id="Shape" fill="#00A8C6"/>
            <path d="M17.19,2.254375 C17.0887552,2.1630168 16.9457844,2.14061205 16.8230769,2.196875 C16.0145041,2.59512576 15.1353033,2.81536791 14.2407692,2.84375 C13.239244,2.85030586 12.2644084,2.50873261 11.4715385,1.8734375 C11.3815689,1.7996209 11.2617686,1.7779903 11.1530769,1.8159375 C11.042221,1.85238633 10.9563993,1.94418602 10.9246154,2.0603125 L9.47076923,7.15625 C9.44870278,7.31110678 9.50652019,7.46662795 9.62307692,7.5659375 C10.5745764,8.23726285 11.6988065,8.59542856 12.8492308,8.59375587 C13.8372495,8.57581931 14.8091039,8.3303269 15.6946154,7.875 C15.7397699,7.85284638 15.7798837,7.82099949 15.8123077,7.7815625 C15.8469407,7.74232121 15.8729273,7.69572077 15.8884615,7.645 L17.2730769,2.61375 C17.3113826,2.48722054 17.2794469,2.34907277 17.19,2.254375 Z" id="Shape" fill="#00A8C6"/>
        </g>
    </g>
</svg>