<?xml version="1.0" encoding="iso-8859-1"?>
<!-- Uploaded to: SVG Repo, www.svgrepo.com, Generator: SVG Repo Mixer Tools -->
<svg version="1.1" id="Layer_1" xmlns="http://www.w3.org/2000/svg" xmlns:xlink="http://www.w3.org/1999/xlink" 
	 viewBox="0 0 512 512" xml:space="preserve">
<rect x="394.449" y="235.102" style="fill:#4B92B9;" width="41.796" height="141.061"/>
<rect x="7.837" y="135.837" style="fill:#79CAE8;" width="386.612" height="240.327"/>
<g>
	<rect x="65.306" y="376.163" style="fill:#4B92B9;" width="125.388" height="31.347"/>
	<rect x="227.265" y="376.163" style="fill:#4B92B9;" width="73.143" height="31.347"/>
</g>
<g>
	<rect x="462.367" y="276.898" style="fill:#CAF9F4;" width="31.347" height="62.694"/>
	<rect x="462.367" y="172.408" style="fill:#CAF9F4;" width="31.347" height="62.694"/>
</g>
<polygon style="fill:#FFFFFF;" points="504.163,99.265 436.245,99.265 436.245,412.735 462.367,412.735 462.367,125.388 
	504.163,125.388 "/>
<path style="fill:#CAF9F4;" d="M169.796,318.694H86.204c-11.542,0-20.898-9.356-20.898-20.898v-83.592
	c0-11.542,9.356-20.898,20.898-20.898h83.592c11.542,0,20.898,9.356,20.898,20.898v83.592
	C190.694,309.338,181.338,318.694,169.796,318.694z"/>
<g>
	<rect x="251.82" y="193.306" style="fill:#FFFFFF;" width="85.682" height="28.212"/>
	<rect x="251.82" y="256" style="fill:#FFFFFF;" width="85.682" height="28.212"/>
</g>
<path d="M512,133.224V91.429h-83.592v135.837h-26.122V128H0v256h57.469v31.347h141.061V384h20.898v31.347h88.816V384h86.204h7.837
	h26.122v36.571h41.796v-73.143h31.347v-78.367h-31.347v-26.122h31.347v-78.367h-31.347v-31.347H512z M182.857,399.673H73.143V384
	h109.714V399.673z M292.571,399.673h-57.469V384h57.469V399.673z M386.612,368.327H15.673V143.673h370.939V368.327z
	 M402.286,368.327V242.939h26.122v125.388H402.286z M454.531,404.898h-10.449V107.102h52.245v10.449h-41.796V404.898z
	 M485.878,284.735v47.02h-15.673v-47.02H485.878z M485.878,180.245v47.02h-15.673v-47.02H485.878z"/>
<path d="M78.367,325.436v19.381h15.673v-18.286h12.19v18.286h15.673v-18.286h12.191v18.286h15.673v-18.286h12.191v18.286h15.673
	v-19.381c9.552-2.713,17.09-10.25,19.803-19.803h19.381v-15.673h-18.286v-12.191h18.286v-15.673h-18.286v-12.191h18.286v-15.673
	h-18.286v-12.19h18.286v-15.673h-19.381c-2.713-9.552-10.25-17.09-19.803-19.803v-19.381h-15.673v18.286h-12.191v-18.286h-15.673
	v18.286h-12.191v-18.286h-15.673v18.286h-12.19v-18.286H78.367v19.381c-9.552,2.713-17.09,10.25-19.803,19.803H39.184v15.673h18.286
	v12.191H39.184v15.673h18.286v12.191H39.184v15.673h18.286v12.19H39.184v15.673h19.381
	C61.277,315.185,68.815,322.723,78.367,325.436z M73.143,214.204c0-7.202,5.859-13.061,13.061-13.061h83.592
	c7.202,0,13.061,5.859,13.061,13.061v83.592c0,7.202-5.859,13.061-13.061,13.061H86.204c-7.202,0-13.061-5.859-13.061-13.061
	V214.204z"/>
<path d="M345.339,185.469H243.984v43.886h101.355V185.469z M329.665,213.682h-70.008v-12.539h70.008V213.682z"/>
<path d="M345.339,248.163H243.984v43.886h101.355V248.163z M329.665,276.375h-70.008v-12.539h70.008V276.375z"/>
<circle cx="159.347" cy="224.653" r="10.449"/>
</svg>